<svg xmlns="http://www.w3.org/2000/svg" xmlns:xlink="http://www.w3.org/1999/xlink" width="390.4" height="390.4" viewBox="0 0 366 366"><defs><linearGradient id="d"><stop offset="0" stop-color="#d61175"/><stop offset="1" stop-color="#ff2a8e"/></linearGradient><linearGradient id="c"><stop offset="0" stop-color="#cdbd2d"/><stop offset="1" stop-color="#fff05e"/></linearGradient><linearGradient id="b"><stop offset="0" stop-color="maroon"/><stop offset="1" stop-color="#ff8d68"/></linearGradient><linearGradient id="a"><stop offset="0"/><stop offset="1" stop-color="#565656"/></linearGradient><linearGradient xlink:href="#a" id="e" x1="91.5" y1="511.362" x2="333.5" y2="122.362" gradientUnits="userSpaceOnUse"/><linearGradient xlink:href="#b" id="f" x1="243" y1="370.362" x2="420" y2="122.362" gradientUnits="userSpaceOnUse"/><linearGradient xlink:href="#c" id="g" x1="444.545" y1="773.264" x2="598.787" y2="721.509" gradientUnits="userSpaceOnUse" gradientTransform="matrix(.94595 0 0 1.05634 -196.297 -56.936)"/><linearGradient xlink:href="#d" id="h" x1="620" y1="736.862" x2="762" y2="666.862" gradientUnits="userSpaceOnUse" gradientTransform="matrix(.94595 0 0 1.06699 -508.649 -58.015)"/></defs><g transform="translate(-158 -543.362)"><path d="M24 116.362h400v400H24z" fill="url(#e)" fill-rule="evenodd" stroke="#000"/><path opacity=".998" fill="#565656" d="M549 304.362h25v43h-25z"/><path d="M62 187.628h148v239.469H62z" opacity=".998" fill="#00b7af"/><path d="M238 187.628h148v185.469H238z" opacity=".998" fill="url(#f)"/><path d="M627 196.362a60 60 0 0 1-60 60 60 60 0 0 1-60-60 60 60 0 0 1 60-60 60 60 0 0 1 60 60zM627 316.362a60 60 0 0 1-60 60 60 60 0 0 1-60-60 60 60 0 0 1 60-60 60 60 0 0 1 60 60z" opacity=".998" fill="#00b7af"/><rect width="206" height="146" x="494" y="600.362" rx="15" ry="15" opacity=".998" fill="none"/><rect width="121" height="79" x="646" y="435.362" rx="14.5" ry="12" opacity=".998" fill="#00b7af"/><g transform="translate(116 -3)"><rect ry="50" rx="50" y="546.362" x="42" height="366" width="366" opacity=".998" fill="#505050"/><rect ry="31.69" rx="28.378" y="579.362" x="236" height="300" width="140" opacity=".998" fill="url(#g)"/><rect ry="32.01" rx="33.333" y="579.362" x="75" height="223" width="140" opacity=".998" fill="url(#h)"/></g></g></svg>